<?xml version="1.0" encoding="UTF-8" standalone="no"?>
<svg
   xmlns:dc="http://purl.org/dc/elements/1.1/"
   xmlns:cc="http://creativecommons.org/ns#"
   xmlns:rdf="http://www.w3.org/1999/02/22-rdf-syntax-ns#"
   xmlns:svg="http://www.w3.org/2000/svg"
   xmlns="http://www.w3.org/2000/svg"
   xmlns:sodipodi="http://sodipodi.sourceforge.net/DTD/sodipodi-0.dtd"
   xmlns:inkscape="http://www.inkscape.org/namespaces/inkscape"
   sodipodi:docname="绘图-1.svg"
   inkscape:version="1.0 (4035a4fb49, 2020-05-01)"
   id="svg8"
   version="1.1"
   viewBox="0 0 210 297"
   height="297mm"
   width="210mm">
  <defs
     id="defs2" />
  <sodipodi:namedview
     inkscape:window-maximized="0"
     inkscape:window-y="0"
     inkscape:window-x="190"
     inkscape:window-height="1050"
     inkscape:window-width="1567"
     inkscape:lockguides="true"
     showgrid="false"
     inkscape:document-rotation="0"
     inkscape:current-layer="layer1"
     inkscape:document-units="mm"
     inkscape:cy="441.23485"
     inkscape:cx="517.99835"
     inkscape:zoom="0.98994949"
     inkscape:pageshadow="2"
     inkscape:pageopacity="0.0"
     borderopacity="1.0"
     bordercolor="#666666"
     pagecolor="#ffffff"
     id="base" />
  <metadata
     id="metadata5">
    <rdf:RDF>
      <cc:Work
         rdf:about="">
        <dc:format>image/svg+xml</dc:format>
        <dc:type
           rdf:resource="http://purl.org/dc/dcmitype/StillImage" />
        <dc:title></dc:title>
      </cc:Work>
    </rdf:RDF>
  </metadata>
  <g
     id="layer1"
     inkscape:groupmode="layer"
     inkscape:label="图层 1">
    <path
       id="path114"
       d="m 58.264755,107.97689 c -1.641404,-0.045 -8.736632,-2.32036 -10.423509,-1.33635 -5.762202,3.36128 -8.726038,9.36181 -10.690783,15.50163 -0.441897,1.38093 -1.309328,4.35835 -1.069078,5.87993 0.09943,0.62972 2.93928,5.34454 2.939965,5.34539 3.51368,4.3921 9.832935,10.39858 14.432555,13.63075 6.876891,4.83241 3.272459,0.0334 9.087165,7.21628 0.353697,0.43692 0.267269,1.65042 0.267269,2.13815 0,2.28326 -2.325873,3.3589 -4.276313,4.00905 -10.330428,3.44347 -7.605355,2.09884 -19.243407,3.20723 -35.961086,4.08649 8.473207,-0.74699 -20.847022,1.87089 -10.7328741,0.95829 -1.732339,0.8018 -9.3544331,0.8018 -0.7561945,0 -2.315629,-0.31216 -0.8018086,-1.06907"
       style="fill:none;stroke:#000000;stroke-width:0.264583px;stroke-linecap:butt;stroke-linejoin:miter;stroke-opacity:1" />
    <path
       id="path116"
       d="m 80.448128,113.58955 c 0,0.80181 0.137382,1.61547 0,2.40542 -0.222258,1.27799 -0.744945,2.48576 -1.069078,3.74178 -0.388784,1.50653 -0.63006,3.05092 -1.069078,4.54358 -2.017549,6.85966 -1.72565,2.75912 -3.207234,11.22532 -0.866984,4.95419 -0.286751,16.1476 0.267268,20.57975 0.171546,1.37237 0.758087,2.66142 1.069078,4.00904 0.223973,0.97055 0.164614,2.01516 0.534538,2.93997 0.923917,2.30979 4.207899,6.63202 7.216278,5.87993 1.795666,-0.44892 2.558031,-2.40872 3.474503,-3.74177 1.484426,-2.15917 3.067521,-4.24958 4.543583,-6.41447 6.159135,-9.0334 0.94166,-1.55784 6.681738,-11.49259 6.115176,-10.58396 1.938306,-1.17895 8.552626,-15.23436 2.05876,-4.37488 1.27689,-4.24644 2.93996,-8.8199 1.94231,-5.34134 1.87089,-2.61715 1.87089,-4.81085"
       style="fill:none;stroke:#000000;stroke-width:0.264583px;stroke-linecap:butt;stroke-linejoin:miter;stroke-opacity:1" />
    <path
       id="path118"
       d="m 128.28937,112.52047 c 4.32704,4.46622 4.40468,7.77574 4.54358,14.16529 0.10929,5.02701 -1.7745,8.94179 -3.20723,13.63074 -1.80725,5.91465 -3.25762,11.79403 -5.34539,17.63979 -1.28177,3.58895 -2.66756,7.03845 -3.74177,10.69078 -0.42413,1.44203 -1.20891,3.79931 -1.60362,3.20723 -2.16718,-3.25076 3.84863,-16.1683 5.61266,-19.51067 0.85625,-1.62238 1.76254,-3.21808 2.67269,-4.81085 2.5031,-4.38042 3.36777,-7.7585 8.01809,-9.08717 0.27089,-0.0774 0.52008,-0.26726 0.80181,-0.26726 4.56559,0 4.70492,6.49026 4.00904,9.6217 -0.23739,1.06827 -2.69301,3.01863 -3.4745,3.4745 -3.35512,1.95715 -9.82407,1.68055 -13.63075,1.87089 -0.62285,0.0311 -1.31309,-0.2789 -1.87089,0 -0.0797,0.0398 -0.0313,0.18385 0,0.26727 0.50537,1.34765 0.75707,2.84503 1.60362,4.00904 0.63963,0.87948 1.74654,1.30094 2.6727,1.87089 4.32054,2.6588 8.9384,4.03143 13.63074,5.87993 1.33913,0.52753 2.67692,1.05865 4.00905,1.60361 1.87133,0.76555 2.41327,1.06123 2.40542,1.06908 -0.18899,0.18899 -0.53546,0.0222 -0.80181,0 -0.80395,-0.067 -1.60361,-0.17818 -2.40542,-0.26727"
       style="fill:none;stroke:#000000;stroke-width:0.264583px;stroke-linecap:butt;stroke-linejoin:miter;stroke-opacity:1" />
    <path
       id="path120"
       d="m 165.43984,118.13313 c 0.44544,0.97999 1.02702,1.90889 1.33634,2.93996 0.98252,3.27507 0.1195,7.44193 -0.26727,10.69078 -1.09901,9.23176 -0.8018,4.35704 -0.8018,14.16529 0,2.7782 -0.29147,8.8149 0.53453,12.02713 0.42718,1.66123 1.91571,7.48355 4.81086,7.48355 0.17817,0 0.38856,0.10218 0.53453,0 0.77585,-0.54309 1.42544,-1.24726 2.13816,-1.87089 0.80181,-0.62363 1.57026,-1.2927 2.40543,-1.87089 2.86864,-1.98598 7.89758,-4.48197 10.42351,-7.75081 2.86218,-3.70401 3.6996,-8.46364 5.07812,-12.82894 1.88284,-5.96233 3.67416,-11.89063 5.34539,-17.90706 0.14138,-0.50896 1.31228,-2.69676 0.80181,-3.20723 -0.29619,-0.29619 -0.86741,0.60014 -1.06908,0.8018"
       style="fill:none;stroke:#000000;stroke-width:0.264583px;stroke-linecap:butt;stroke-linejoin:miter;stroke-opacity:1" />
    <path
       id="path128"
       d="m 217.02285,126.95302 c -2.51906,8.08937 -4.96218,16.22662 -7.48354,24.32153 -1.7313,5.55838 -3.64551,11.09078 -5.61266,16.57071 -0.70463,1.9629 -1.37558,3.93881 -2.13816,5.87993 -0.74116,1.88658 -1.42796,4.39889 -1.60362,0.53454 -0.0388,-0.85411 -0.12414,-5.0725 0.26727,-6.41447 0.403,-1.38172 1.11175,-2.65641 1.60362,-4.00904 1.66564,-4.58051 3.0023,-9.27418 4.54358,-13.89802 1.22996,-3.68986 2.77909,-7.26818 4.00905,-10.95805 0.52631,-1.57893 0.71822,-3.26555 1.33634,-4.81085 0.45966,-1.14915 1.24125,-2.14169 1.87089,-3.20723 0.52855,-0.89447 0.95459,-1.86141 1.60362,-2.6727 0.43467,-0.54334 1.07701,-0.88155 1.60361,-1.33635 1.43349,-1.238 2.83314,-2.51507 4.27632,-3.74177 2.5779,-2.19122 5.35927,-4.7449 8.55262,-1.87088 0.42401,0.38161 0.66571,0.93297 1.06908,1.33634 0.66966,0.66966 1.48909,1.18126 2.13816,1.87089 1.95139,2.07335 5.89752,6.62894 4.81085,9.88897 -1.15621,3.46861 -3.5777,4.66266 -6.68174,6.1472 -2.80685,1.34241 -4.85104,2.38573 -8.01809,2.93997 -2.47292,0.43276 -7.51339,1.01955 -10.42351,0.53453 -0.12428,-0.0207 -0.14128,-0.26727 -0.26727,-0.26727 -0.47976,0 0.23074,0.96503 0.53454,1.33635 1.53117,1.87144 3.21641,3.2939 5.07812,4.81085 4.26427,3.47459 5.90688,4.8378 9.88897,8.8199 0.84753,0.84752 1.5579,1.82517 2.40543,2.67269 0.49202,0.49202 1.13556,0.82149 1.60362,1.33635 2.00997,2.21097 0.096,1.00184 2.13815,2.6727 0.59315,0.4853 1.28901,0.83759 1.87089,1.33634 0.13528,0.11596 -0.12599,0.40855 0,0.53454 0.063,0.063 0.22743,-0.0797 0.26727,0 0.80181,1.60362 -0.40091,-0.13363 0,0.80181 0.83525,1.94893 0.46221,1.39986 2.13816,2.40543"
       style="fill:none;stroke:#000000;stroke-width:0.264583px;stroke-linecap:butt;stroke-linejoin:miter;stroke-opacity:1" />
    <path
       id="path130"
       d="m 270.74402,127.48756 c 0,0.92825 0.0699,1.47824 -0.26726,2.40543 -2.49637,6.865 -6.27854,13.45969 -9.88897,19.77794 -2.55488,4.47103 -5.02158,8.9967 -7.75082,13.36348 -4.5874,7.33984 0.023,-0.0678 -2.93996,3.74177 -1.23835,1.59216 -2.43788,3.24617 -3.74178,4.81085 -0.32263,0.38716 -0.56511,1.06908 -1.06908,1.06908 -0.0891,0 0.0175,-0.17991 0,-0.26727 -0.072,-0.36019 -0.2267,-0.704 -0.26727,-1.06908 -0.2328,-2.09524 1.83687,-4.21836 2.6727,-6.14719 2.19644,-5.06872 4.1943,-10.14636 6.94901,-14.9671 1.28007,-2.24013 3.63938,-4.00332 5.34539,-5.87993 1.14371,-1.25808 1.88423,-2.91894 2.93996,-4.27631 1.25934,-1.61915 2.83304,-2.83304 4.27632,-4.27631 1.3894,-1.38942 2.30491,-2.98412 3.4745,-4.54358 0.41749,-0.55666 0.96756,-1.01357 1.33634,-1.60362 0.0944,-0.1511 -0.0797,-0.37517 0,-0.53454 0.0907,-0.18138 0.95554,-0.8775 1.06907,-0.80181 2.01618,1.34411 5.15858,12.47347 5.3454,13.09621 3.2987,10.99565 3.47451,20.08975 3.47451,31.27053 0,0.0891 0,-0.17818 0,-0.26727 0,-0.90186 0.0432,-0.36168 -0.26728,-1.60361 -0.77343,-3.09379 0.50845,1.79256 -1.06907,-2.93997 -0.28732,-0.86192 -0.33745,-1.78579 -0.53454,-2.67269 -0.15936,-0.71716 -0.46144,-1.40715 -0.53454,-2.13816 -0.0847,-0.84659 -0.32544,-6.98356 0,-8.28536 0.48252,-1.93002 2.74188,-6.07802 2.67269,-6.14719 -0.14259,-0.1426 -3.35188,0.87098 -4.2763,1.06907 -2.2234,0.47645 -8.1593,1.38773 -10.15625,1.60362 -2.72925,0.29506 -3.46926,0.26727 -5.61266,0.26727 -0.46684,0 -1.91564,0.22251 -2.13815,0 -0.063,-0.063 0.063,-0.20427 0,-0.26727 -0.126,-0.12599 -0.71272,0 -0.53454,0 0.17818,0 0.66053,-0.12599 0.53454,0 -0.19921,0.19921 -0.53454,0.17818 -0.80181,0.26727"
       style="fill:none;stroke:#000000;stroke-width:0.264583px;stroke-linecap:butt;stroke-linejoin:miter;stroke-opacity:1" />
  </g>
</svg>
