<?xml version="1.0" encoding="UTF-8" standalone="no"?>
<svg
   xmlns:dc="http://purl.org/dc/elements/1.1/"
   xmlns:cc="http://creativecommons.org/ns#"
   xmlns:rdf="http://www.w3.org/1999/02/22-rdf-syntax-ns#"
   xmlns:svg="http://www.w3.org/2000/svg"
   xmlns="http://www.w3.org/2000/svg"
   xmlns:sodipodi="http://sodipodi.sourceforge.net/DTD/sodipodi-0.dtd"
   xmlns:inkscape="http://www.inkscape.org/namespaces/inkscape"
   sodipodi:docname="绘图.svg"
   inkscape:version="1.0 (4035a4fb49, 2020-05-01)"
   id="svg8"
   version="1.1"
   viewBox="0 0 210 297"
   height="297mm"
   width="210mm">
  <defs
     id="defs2" />
  <sodipodi:namedview
     inkscape:window-maximized="1"
     inkscape:window-y="-11"
     inkscape:window-x="-11"
     inkscape:window-height="1046"
     inkscape:window-width="1920"
     showgrid="false"
     inkscape:document-rotation="0"
     inkscape:current-layer="layer1"
     inkscape:document-units="mm"
     inkscape:cy="548.57143"
     inkscape:cx="400"
     inkscape:zoom="0.35"
     inkscape:pageshadow="2"
     inkscape:pageopacity="0.0"
     borderopacity="1.0"
     bordercolor="#666666"
     pagecolor="#ffffff"
     id="base" />
  <metadata
     id="metadata5">
    <rdf:RDF>
      <cc:Work
         rdf:about="">
        <dc:format>image/svg+xml</dc:format>
        <dc:type
           rdf:resource="http://purl.org/dc/dcmitype/StillImage" />
        <dc:title></dc:title>
      </cc:Work>
    </rdf:RDF>
  </metadata>
  <g
     id="layer1"
     inkscape:groupmode="layer"
     inkscape:label="图层 1">
    <path
       d="m -334.78438,-9.5604564 c -3.38981,-1.8050346 -7.36393,-2.4987926 -11.07421,-3.2688446 -2.50616,-0.520149 -5.00584,-1.09511 -7.54095,-1.448322 -8.33723,-1.161618 -15.65047,-1.459011 -24.08142,-1.99842 -11.99001,-0.347473 -24.20673,-1.015132 -35.88877,2.419781 -12.03118,3.537579 -22.06059,10.0545065 -32.30414,17.3580359 -3.94359,2.8117384 -7.27533,6.395355 -10.91301,9.5930321 -3.13343,3.690278 -6.60545,7.117939 -9.4003,11.070835 -8.91945,12.61527 -14.49985,27.485827 -13.8262,43.125118 0.23202,5.386175 0.35082,11.086226 2.6747,15.950818 3.29113,6.889338 9.14043,12.232368 13.71066,18.348553 6.8186,6.35275 13.3935,12.97756 20.45578,19.05826 12.79033,11.0126 34.61814,27.26327 48.07479,37.36659 17.98172,13.50074 26.49744,19.50542 43.82067,33.20112 5.68555,4.49498 11.23613,9.15807 16.85419,13.7371 8.55311,7.51154 14.873,12.30582 21.89811,20.96164 3.28081,4.04237 7.14504,10.10903 8.43179,15.40003 1.43936,5.91851 0.27996,7.96354 -1.01359,13.68832 -1.11966,2.24647 -2.00573,4.6254 -3.35896,6.7394 -4.95972,7.74791 -12.54731,13.86352 -20.04896,18.98233 -8.93348,6.09582 -6.24372,5.02611 -13.13622,6.65007 -5.158,1.77583 -10.24425,3.77563 -15.474,5.32746 -5.71638,1.69622 -11.51231,3.13037 -17.33648,4.40838 -11.70067,2.56757 -25.12409,4.79679 -37.1049,5.4119 -16.60229,0.85233 -23.88142,-0.26842 -40.376,-1.58258 -17.28742,-2.25179 -34.32876,-6.14334 -50.82648,-11.7797 -5.10434,-1.74387 -14.19826,-5.30103 -19.28194,-8.0264 -2.14632,-1.15065 -4.11046,-2.61279 -6.16571,-3.91919 -1.45349,-1.23643 -3.01811,-2.35302 -4.3605,-3.70928 -2.82524,-2.85443 -5.30772,-6.83958 -5.82056,-10.90847 -0.37021,-2.93742 0.26736,-4.27174 1.00488,-7.03016 0,0 -9.77513,4.69383 -9.77513,4.69383 v 0 c -0.6535,3.04483 -1.20979,4.31335 -0.70816,7.50567 0.67339,4.28562 3.28932,8.37407 6.36804,11.32938 1.42531,1.36819 3.08134,2.4737 4.62201,3.71054 2.15014,1.30022 4.20484,2.77323 6.45041,3.90065 4.99359,2.50709 15.12554,6.14249 19.99689,7.69168 16.80117,5.34318 34.07161,9.10383 51.53184,11.51614 15.51797,1.27008 24.71629,2.51691 40.32284,1.81841 6.27951,-0.28107 12.53572,-1.03688 18.75994,-1.9144 10.71239,-1.51026 25.0459,-4.55115 35.50994,-7.52779 5.14262,-1.46291 10.15788,-3.34134 15.2368,-5.012 6.82905,-3.45898 13.76489,-6.7147 20.48711,-10.37693 5.52159,-3.00813 12.60234,-7.96428 17.43037,-12.07032 4.62373,-3.93229 8.8596,-8.13605 12.06098,-13.33967 1.35335,-2.19973 2.21433,-4.66669 3.3215,-7.00003 1.1738,-5.93153 2.34164,-8.15198 0.63469,-14.20652 -1.48979,-5.28425 -5.81102,-11.41773 -9.26272,-15.33069 -7.32441,-8.30317 -14.27454,-13.30536 -22.96761,-20.43368 -19.00909,-14.70791 -17.79841,-13.91559 -38.34966,-29.15488 -7.75883,-5.75337 -15.61052,-11.38112 -23.35204,-17.15775 -13.68486,-10.21149 -34.89632,-26.10496 -47.70586,-37.49838 -6.88184,-6.12103 -13.18228,-12.866 -19.77342,-19.298994 -4.24151,-6.147533 -9.68738,-11.619238 -12.72453,-18.442601 -2.16562,-4.865378 -2.32537,-10.456257 -2.50772,-15.778718 -0.53332,-15.567631 5.2121,-30.210725 14.20111,-42.665754 2.82059,-3.908159 6.29978,-7.295924 9.44967,-10.9438854 3.65612,-3.1594298 7.29348,-6.340739 10.96841,-9.47828891 1.30427,-1.11355729 2.44139,-2.49387909 3.96846,-3.27439239 7.95338,-4.0651014 14.74441,-6.0817161 23.54559,-7.1784433 7.47263,-0.931174 16.71545,-0.478667 24.17207,-0.338647 4.17938,0.297831 8.36811,0.484997 12.53813,0.8934945 7.96888,0.7806354 10.99335,1.2831773 18.21759,2.9540274 3.46131,0.800545 7.24691,1.5535283 10.34799,3.4029613 0,0 9.3922,-6.1214256 9.3922,-6.1214256 z"
       id="path102"
       style="fill:#000000;fill-opacity:1;fill-rule:nonzero;stroke:none;stroke-width:0.264583" />
    <path
       d="m -237.07353,2.6939652 c 0.078,2.858607 0.0157,0.2987069 0.0698,3.615767 0.1257,7.6989638 -1.15608,13.9934568 -2.65632,21.5554878 -6.40713,29.03088 -13.68271,57.858879 -20.41785,86.81461 -6.17519,26.52286 -9.59062,53.68419 -9.83716,80.92674 -0.15121,16.70787 0.57597,21.24738 1.90958,37.5224 1.77773,13.31013 3.36113,27.12604 9.31403,39.39149 1.44549,2.97831 3.11464,5.89783 5.23634,8.43912 4.81,5.76125 8.84093,7.39736 15.12159,11.05927 2.99071,1.03039 5.87893,2.42919 8.97211,3.09118 7.21373,1.54387 16.18097,1.44854 23.42058,0.78981 11.49092,-1.04553 17.47518,-2.25642 28.13027,-7.8617 7.93441,-4.17401 15.30086,-9.34839 22.95128,-14.0226 5.13527,-5.10812 10.66235,-9.85047 15.40582,-15.32435 5.4728,-6.31553 10.43805,-13.07203 15.17026,-19.95997 14.94638,-21.75505 26.817352,-45.57764 37.344223,-69.71982 3.286178,-7.53647 6.235271,-15.21548 9.352907,-22.82323 10.803382,-27.60155 20.036594,-55.875764 26.468308,-84.83055 0.717113,-3.228355 1.323432,-6.480325 1.98515,-9.72049 1.254067,-7.998245 2.789251,-15.952898 4.046389,-23.950302 0.04641,-0.365747 0.09282,-0.731494 0.139229,-1.097241 0,0 -10.027232,4.967597 -10.027232,4.967597 v 0 c -0.03463,0.350282 -0.06925,0.700564 -0.10388,1.050846 -0.903465,7.811236 -1.945953,15.608776 -3.037557,23.395154 -1.632784,9.246399 -1.971889,11.798014 -4.214368,21.479817 -5.68229,24.533029 -13.42304,48.548169 -22.47378,72.037649 -3.067531,7.57186 -5.957141,15.21826 -9.202591,22.71558 -10.455648,24.15361 -22.347788,47.99538 -37.499018,69.59634 -4.86375,6.9342 -9.99047,13.71479 -15.63289,20.03161 -4.92124,5.50945 -10.65204,10.23837 -15.97806,15.35755 -2.5038,1.7226 -4.79382,3.80723 -7.51141,5.16779 -4.69523,2.35064 -9.55258,4.47109 -14.60402,5.90421 -4.187,1.18784 -8.58382,1.49897 -12.91721,1.90357 -7.13946,0.66659 -15.78113,0.76631 -22.89841,-0.72165 -3.03846,-0.63524 -5.88841,-1.96713 -8.83261,-2.95069 -6.2788,-3.53108 -10.09698,-4.97586 -14.95103,-10.59331 -2.12518,-2.4594 -3.83315,-5.28206 -5.3175,-8.17374 -6.15538,-11.9914 -8.05928,-25.5873 -9.98585,-38.72626 -1.48254,-15.96198 -2.30905,-20.83782 -2.23149,-37.2356 0.12905,-27.28297 3.98902,-54.37431 10.17908,-80.91023 3.63933,-15.342994 4.83513,-20.647188 8.67398,-35.809139 4.35886,-17.215762 9.08945,-34.340765 13.04184,-51.65796 1.89642,-8.678179 3.67729,-16.8989102 3.38975,-25.8160926 0,0 -9.99231,5.0913368 -9.99231,5.0913368 z"
       id="path104"
       style="fill:#000000;fill-opacity:1;fill-rule:nonzero;stroke:none;stroke-width:0.264583" />
    <path
       d="m 4.1011022,4.40749 c 0.316937,1.1161871 0.7795109,2.2009642 0.9508109,3.348561 1.514185,10.144046 0.1869406,22.101781 -1.1096419,32.103195 -2.0718654,15.981698 -3.80461545,23.874732 -6.8304247,39.997718 -4.1207687,20.654706 -9.0624545,41.130666 -14.4409835,61.490166 -3.226064,12.21172 -6.07806,22.67537 -9.883801,34.69186 -1.577827,4.98193 -3.335089,9.90525 -5.002636,14.85787 -6.069623,17.81428 -13.177832,35.24698 -21.281781,52.2269 -4.040643,8.28677 -7.956259,16.63549 -11.113196,25.30246 -1.165894,2.5165 -1.616302,5.39112 -3.067039,7.78542 -0.300913,0.49662 -1.630156,1.61057 -1.118955,1.33514 8.921967,-4.80701 7.622834,-2.33635 9.182047,-7.72605 3.612015,-12.4743 9.80952,-23.91772 15.696324,-35.40852 0,0 -8.412183,3.79318 -8.412183,3.79318 v 0 c -6.182762,11.90493 -12.556755,23.77204 -17.00367,36.4737 0.05761,1.47325 -1.286531,4.62955 0.172836,4.41973 10.598221,-1.52363 11.702031,-7.68678 14.380477,-15.25668 3.104685,-8.55216 6.885617,-16.82699 10.784792,-25.04325 7.837623,-16.80583 14.347209,-34.18567 20.096909,-51.81173 4.298264,-13.37682 5.819514,-17.67003 9.67248,-31.5987 1.630013,-5.89258 3.124319,-11.82201 4.6372989,-17.74572 C -4.3857962,117.26993 0.4408447,96.801833 4.6455599,76.197536 7.1128196,63.752954 10.303446,48.356784 12.29374,35.72383 13.949208,25.21611 15.590739,13.318445 14.592482,2.5934925 14.479639,1.3811416 14.06136,0.21693555 13.795799,-0.97134292 c 0,0 -9.6946968,5.37883292 -9.6946968,5.37883292 z"
       id="path106"
       style="fill:#000000;fill-opacity:1;fill-rule:nonzero;stroke:none;stroke-width:0.264583" />
    <path
       d="m 5.2638996,96.22675 c 17.2402654,-0.687906 34.5033694,0.988047 51.4397454,4.19118 4.062256,0.76828 8.080681,1.75253 12.121022,2.62879 7.339235,2.11656 11.818107,3.11576 18.660076,6.09753 3.910983,1.70443 7.653763,3.57794 10.440159,6.92504 2.764308,3.32058 2.451928,4.71329 3.088178,8.71445 -0.38693,1.70934 -0.52864,3.49341 -1.160781,5.12802 -2.849142,7.36734 -8.729753,14.65246 -14.704243,19.68938 -2.750544,2.3189 -5.714177,4.38847 -8.752482,6.31499 -1.152822,0.73098 -2.507467,1.07977 -3.7612,1.61965 -12.898761,6.11436 -26.376188,10.88692 -40.053371,14.92171 -5.026073,1.4827 -14.067117,3.91141 -19.503002,4.8867 -2.453671,0.44022 -4.9463207,0.62539 -7.4194809,0.93808 -6.17262959,0.3971 -12.3178417,-0.26897 -18.3649321,-1.47692 -3.548477,-0.70883 -6.996632,-1.77842 -10.490125,-2.70014 -2.169554,2.4928 -5.987515,4.21505 -6.508665,7.47839 -0.282191,1.76703 3.343575,1.27668 5.003942,1.94393 2.36011,0.94844 4.730493,1.8746 7.056921,2.9029 6.690713,2.95734 9.2650606,4.22264 15.4522338,8.45784 2.60713725,1.78461 5.0513787,3.79626 7.5770681,5.69439 11.3936101,9.47351 21.2726651,20.55937 30.9771691,31.70739 7.149668,8.44857 13.839152,17.27054 21.182999,25.55447 6.871451,7.88877 14.394119,15.16158 21.798634,22.5388 0.699233,0.88212 1.398466,1.76427 2.097699,2.64642 0.495638,0.74975 0.94638,1.53117 1.486921,2.24922 0.493636,0.65577 1.072838,1.24248 1.609257,1.86372 0,0 9.419793,-5.69719 9.419793,-5.69719 v 0 c -0.526433,-0.57338 -1.093338,-1.11207 -1.579298,-1.72014 -0.581591,-0.72773 -1.078055,-1.51958 -1.617083,-2.27935 -0.754941,-0.89612 -1.509882,-1.79224 -2.264823,-2.68833 -7.566011,-7.19569 -15.022869,-14.50832 -21.87526,-22.3994 -7.335006,-8.29271 -14.134007,-17.02799 -21.219633,-25.5315 -9.94719,-11.07429 -20.076325,-22.05921 -31.539398,-31.60135 -5.7051495,-4.33596 -9.2266007,-7.31434 -15.4636873,-10.8638 -2.407463,-1.37006 -4.9656118,-2.45724 -7.4707892,-3.6392 -2.2529405,-1.06295 -4.5286505,-2.07713 -6.8023335,-3.09496 -1.55662,-0.69683 -3.006906,-2.33467 -4.688266,-2.04889 -4.159162,0.70694 -7.797974,3.2226 -11.696962,4.8339 3.697333,0.56715 7.23857,1.73239 10.912574,2.45208 6.179692,1.21053 12.4480063,1.96207 18.7571073,1.57261 2.55022708,-0.32923 5.1224267,-0.51866 7.6506811,-0.98768 5.3530386,-0.99304 15.0966496,-3.69635 19.9942896,-5.16368 13.690412,-4.10162 27.209557,-8.84524 40.205528,-14.82061 6.759257,-3.72343 13.681995,-7.1644 20.277772,-11.1703 8.232177,-4.99976 15.343106,-11.93256 20.382316,-20.1477 1.3374,-2.18028 2.58472,-4.44515 3.46352,-6.84724 0.64552,-1.76447 0.71091,-3.68982 1.06636,-5.53473 -0.8261,-4.26149 -0.56099,-5.77736 -3.57731,-9.27028 -3.01618,-3.49274 -6.81505,-5.27827 -11.008963,-7.00281 C 89.073621,100.70001 83.91395,99.540741 76.726231,97.556964 72.643364,96.692303 68.578179,95.739481 64.477632,94.962981 47.89905,91.823589 31.079392,89.857791 14.195544,89.737532 c 0,0 -8.9316444,6.489218 -8.9316444,6.489218 z"
       id="path108"
       style="fill:#000000;fill-opacity:1;fill-rule:nonzero;stroke:none;stroke-width:0.264583" />
    <path
       d="m 194.59748,34.794346 c 0.0166,1.18664 0.1047,2.374434 0.0498,3.559918 -0.21426,4.622689 -0.85578,9.694519 -1.57303,14.225601 -1.61012,10.171432 -3.98694,20.155336 -6.35633,30.168868 -5.73164,26.026877 -14.02292,51.364217 -21.85187,76.806457 -3.68129,12.63214 -7.72821,25.17799 -10.89725,37.95542 -3.07538,12.3998 -5.5007,24.97289 -7.95728,37.5054 -2.21615,12.47567 -4.67642,25.24756 -3.56271,37.99149 0.52587,6.0174 1.12424,6.92952 2.86359,12.47053 1.47469,3.14788 2.88056,6.85885 5.39183,9.41509 4.03781,4.11009 8.41178,5.9227 13.84844,7.83209 8.06032,2.83083 12.2483,3.29703 20.60998,4.88075 8.87621,0.94437 17.88234,1.62094 26.70628,-0.19992 2.29551,-0.47369 4.68247,-0.86493 6.75065,-1.96782 15.05602,-8.02878 13.49541,-7.61394 22.80287,-17.56761 2.32662,-3.16318 4.78466,-6.23375 6.97985,-9.4895 10.90462,-16.173 19.16933,-34.30186 26.53908,-52.29731 2.16424,-5.28466 4.17039,-10.63269 6.25557,-15.94903 8.7561,-23.82008 16.67791,-47.97244 23.31107,-72.47494 1.07352,-3.96551 2.03551,-7.96038 3.05326,-11.94056 4.21659,-18.69079 7.73263,-37.541658 10.53505,-56.495061 1.05621,-7.324201 1.81948,-14.688264 2.12196,-22.082402 0.0903,-2.825544 0.0313,-5.652381 0.0201,-8.47857 0,-0.368613 -0.003,-0.737222 -0.003,-1.105834 0,0 -9.96357,5.087408 -9.96357,5.087408 v 0 c 0.006,0.366654 0.0108,0.733311 0.0161,1.099965 0.0414,2.797083 0.0719,5.594612 0.0584,8.392004 -0.10792,7.247964 -0.6782,14.478841 -1.56525,21.672883 -2.44012,18.827792 -5.74749,37.557077 -9.92269,56.077557 -0.97134,3.94814 -1.88235,7.91161 -2.91402,11.84442 -6.40567,24.41921 -14.20984,48.4785 -22.89304,72.17502 -2.10717,5.31523 -4.11562,10.67066 -6.32151,15.9457 -7.50634,17.95048 -16.10485,36.34538 -27.24283,52.37122 -2.26232,3.25511 -4.80688,6.30473 -7.21031,9.4571 -2.44843,2.48587 -5.27799,4.64683 -7.3453,7.45763 -0.37324,0.50747 2.46661,-0.29205 1.88946,-0.0396 -10.54718,4.61378 -22.41708,3.79703 -33.5593,2.84811 -8.53403,-1.56972 -12.1253,-1.86204 -20.29693,-4.81762 -5.15776,-1.86549 -9.30337,-3.69318 -13.11898,-7.61521 -2.44337,-2.51153 -3.83095,-6.02898 -5.31484,-9.0992 -1.74241,-5.32485 -2.36004,-6.30296 -2.95437,-12.09914 -1.28886,-12.56935 1.07451,-25.1833 3.12902,-37.52241 1.73017,-9.06819 2.85281,-15.31167 4.8671,-24.37407 3.81547,-17.16601 8.69285,-34.0633 13.79894,-50.88332 7.83491,-25.55023 16.22876,-50.96888 22.20549,-77.041896 3.89306,-16.050072 7.85889,-32.240075 8.96801,-48.768328 0,0 -9.94789,5.0687 -9.94789,5.0687 z"
       id="path110"
       style="fill:#000000;fill-opacity:1;fill-rule:nonzero;stroke:none;stroke-width:0.264583" />
    <path
       d="m 410.77766,48.051108 c 1.04402,23.114175 -3.26903,46.088966 -6.97384,68.795962 -6.58383,35.97752 -14.2255,71.80105 -23.85213,107.09726 -1.50228,5.50808 -3.12735,10.98192 -4.69101,16.47288 -5.34845,19.34896 -12.66793,38.09879 -22.40894,55.65384 -2.07584,3.63405 -4.80398,6.8185 -7.18301,10.24506 -1.98133,2.9726 -1.00052,1.53924 -2.93685,4.3039 -0.48125,0.61404 -1.64994,2.20041 -2.34191,2.77199 -0.3071,0.25368 -1.37684,0.80155 -1.03735,0.59319 2.88774,-1.77234 5.9763,-3.2467 8.68259,-5.28542 0.26983,-0.20328 -0.59187,-0.40024 -0.72077,-0.7125 -0.30528,-0.73953 -0.3592,-1.55929 -0.5388,-2.33894 -0.005,-8.00224 2.26705,-15.73763 4.4301,-23.36652 2.6923,-9.49563 2.33945,-8.08895 5.47918,-17.74131 4.92366,-13.61122 10.38124,-27.05025 16.88034,-39.99246 2.79802,-5.57195 5.36982,-10.11352 8.36459,-15.53694 4.63243,-8.40446 9.76243,-16.5475 14.00706,-25.16378 2.85229,-5.78999 4.0031,-8.80794 6.52553,-14.83156 7.11271,-17.90327 12.2473,-36.51408 17.38521,-55.0575 3.19964,-10.59193 5.32808,-21.548801 9.13501,-31.95852 0.60518,-1.654813 1.32715,-3.264548 1.99072,-4.896821 3.53375,-7.979847 7.94301,-15.538408 12.30853,-23.084218 3.26339,-5.2992 7.13525,-10.152147 12.15932,-13.886593 1.0155,-0.754832 2.10905,-1.39859 3.16354,-2.097884 -1.96006,1.219023 -4.33736,1.940211 -5.88015,3.657068 -0.83114,0.924891 2.3481,-0.849627 3.56904,-1.085207 4.0639,-0.784122 8.26471,-0.247213 12.15996,1.041932 1.40555,0.465172 2.74087,1.120383 4.11134,1.680575 5.28396,2.620912 10.34634,5.899513 14.20466,10.431899 2.59945,3.053585 3.09284,4.266621 5.08161,7.71013 2.79662,5.582476 4.10874,11.150481 3.05139,17.395029 -0.79238,4.679608 -1.66352,5.802421 -3.65618,10.197904 -6.13137,11.279866 -15.53887,19.913556 -25.33999,27.944526 -6.7455,4.87102 -3.91416,3.00426 -11.45725,7.66221 -0.76467,0.47219 3.10557,-1.78999 2.27489,-1.44701 -2.13022,0.87957 -4.10917,2.09006 -6.19683,3.06638 -4.65096,2.17506 -5.58673,2.43291 -10.17511,4.15731 -3.12238,1.10716 -6.33746,1.90989 -9.55276,2.69016 -1.4288,0.34674 -2.80384,0.63145 -4.16893,1.17496 -3.19159,2.23945 -6.73052,4.05157 -9.57474,6.71836 -0.41352,0.38772 0.49622,1.02467 0.82108,1.4892 0.41238,0.58967 0.90628,1.1184 1.38083,1.6593 2.38141,2.71434 4.95779,5.26563 7.41141,7.91455 7.51591,7.76257 13.87107,16.49127 19.98511,25.36603 6.32325,9.32754 11.75311,19.21143 17.55984,28.85829 7.29541,11.97634 15.82542,23.09497 24.75688,33.88006 5.8719,6.98508 12.19218,13.63572 19.35911,19.31172 4.51321,3.57433 6.77778,4.96441 11.56131,8.18639 5.83655,3.67869 11.80537,7.15503 17.87854,10.42893 1.45314,0.78335 2.88432,1.61761 4.39634,2.28028 0.86656,0.37978 1.84192,1.20547 2.71269,0.83542 3.92171,-1.6665 7.28554,-4.42142 10.92833,-6.63215 0,0 -10.22186,4.26487 -10.22186,4.26487 v 0 c 2.76553,-1.28714 5.90261,-1.97098 8.29659,-3.86141 0.74721,-0.59004 -1.92119,-0.14546 -2.81818,-0.46466 -1.57295,-0.55975 -3.03568,-1.39297 -4.52459,-2.14836 -6.14326,-3.11674 -12.10461,-6.60014 -17.92203,-10.28447 -4.88471,-3.28594 -6.85501,-4.46887 -11.45061,-8.12206 -7.11581,-5.65657 -13.476,-12.19817 -19.40711,-19.06777 -1.67881,-2.02499 -3.39553,-4.01913 -5.03645,-6.07495 -7.05694,-8.84138 -13.32648,-18.28127 -19.45164,-27.78012 -5.76939,-9.69392 -11.04339,-19.70072 -17.51705,-28.9613 -6.13834,-8.90241 -12.48,-17.68252 -19.90021,-25.5816 -2.36792,-2.66918 -4.83767,-5.26943 -7.10706,-8.02438 -0.40841,-0.4958 -0.82663,-0.9867 -1.18372,-1.52066 -0.17285,-0.25849 -0.114,-0.97157 -0.39756,-0.84392 -3.22575,1.45221 -6.17125,3.46019 -9.25687,5.19029 1.44166,-0.99187 2.45967,-1.07403 4.16642,-1.5108 3.32415,-0.85067 6.6561,-1.69143 9.90171,-2.81464 5.70101,-2.12437 11.37674,-4.37969 16.72871,-7.30451 5.17176,-2.82634 10.27922,-5.77047 15.35843,-8.75997 2.1581,-1.27021 4.27693,-2.60972 6.34873,-4.01634 1.78199,-1.20989 3.47035,-2.55227 5.20554,-3.8284 10.04644,-8.35413 18.94054,-16.729204 25.20521,-28.414878 0.79243,-1.814653 1.73734,-3.570097 2.37731,-5.443958 1.59086,-4.658099 2.05441,-9.852081 1.06876,-14.689789 -0.68464,-3.360383 -1.76665,-5.316982 -3.15494,-8.423767 -1.93072,-3.327513 -2.69992,-4.975452 -5.18544,-7.954549 -3.90104,-4.675685 -9.10259,-8.009086 -14.44813,-10.78819 -1.39263,-0.60244 -2.75034,-1.293116 -4.1779,-1.807318 -3.95298,-1.42384 -8.23227,-2.146565 -12.43058,-1.557277 -6.22623,0.873932 -10.77619,4.868987 -16.33505,7.973671 -1.03614,0.731266 -2.10945,1.412539 -3.10844,2.193801 -4.9731,3.889232 -8.80271,8.851659 -12.02959,14.239647 -4.31329,7.548099 -8.63669,15.128698 -12.05368,23.134537 -0.65209,1.654987 -1.36514,3.287247 -1.95633,4.964964 -1.02304,2.903244 -2.34111,7.745799 -3.13716,10.657025 -1.92022,7.022401 -3.61564,14.100001 -5.52585,21.125181 -5.0314,18.56265 -10.10664,37.17748 -17.51124,54.96631 -2.56627,5.95864 -3.80016,9.08439 -6.6898,14.80908 -4.31097,8.54049 -9.4003,16.66741 -13.90177,25.10461 -3.03699,5.65973 -5.23398,9.63658 -8.09088,15.47353 -6.38831,13.05213 -11.7915,26.54827 -16.90317,40.14249 -3.12152,9.43706 -2.92597,8.59227 -5.68097,17.88435 -2.33722,7.88311 -4.77488,15.86643 -4.83301,24.16657 0.22055,0.95557 0.27712,1.96456 0.66164,2.86671 0.27398,0.6428 0.60555,1.88076 1.27085,1.66711 6.99145,-2.24547 10.25152,-4.1547 13.77077,-9.15688 3.27549,-4.81055 6.88406,-9.4088 9.71349,-14.50486 8.96649,-17.55965 15.94762,-36.05856 20.84697,-55.16824 4.0764,-15.13922 5.28891,-19.26873 9.07801,-34.98568 7.06067,-29.28737 13.1808,-58.79796 18.8472,-88.38338 3.75377,-20.931442 7.80962,-41.878997 9.2466,-63.133597 0.15952,-2.359324 0.052,-4.731044 0.21871,-7.090762 0,0 -9.99231,5.091337 -9.99231,5.091337 z"
       id="path112"
       style="fill:#000000;fill-opacity:1;fill-rule:nonzero;stroke:none;stroke-width:0.264583" />
    <path
       d="m 638.34152,44.621727 c -0.0233,1.064893 0.0493,2.136243 -0.0701,3.19468 -0.75959,6.733677 -2.4307,15.197701 -3.69178,21.586669 -3.55309,18.000498 -7.75105,35.857734 -11.8242,53.745264 -2.02293,7.69666 -3.92523,15.42604 -6.06875,23.08999 -5.00991,17.91232 -9.36927,31.71159 -15.54409,49.31627 -7.74012,22.06748 -16.42091,43.78368 -25.21296,65.44602 -5.41624,13.18682 -11.38682,26.13638 -17.97413,38.77772 -1.44864,2.77997 -4.9839,9.38342 -6.90478,12.44171 -0.70305,1.11937 -1.5231,2.16085 -2.28465,3.24128 -0.56221,0.60891 -1.03566,1.31379 -1.68658,1.82671 -0.39997,0.31517 -1.82309,0.89313 -1.40187,0.60695 2.839,-1.92876 6.04099,-3.34642 8.67434,-5.5477 0.33446,-0.27956 -0.63638,-0.62945 -0.80267,-1.03235 -0.7007,-1.69762 -0.28813,-2.76749 -0.0803,-4.59637 1.70603,-6.15122 0.68011,-2.90436 3.17809,-9.70833 0,0 -9.54929,4.44386 -9.54929,4.44386 v 0 c -2.66472,7.04313 -1.55546,3.65448 -3.41921,10.13561 -0.18402,2.29433 -0.58766,3.28649 0.3021,5.37874 0.25607,0.60214 0.47385,1.78168 1.10797,1.62039 3.85792,-0.9814 7.36598,-3.02763 10.9805,-4.69549 0.44024,-0.20312 0.81164,-0.54546 1.1435,-0.89892 0.53925,-0.5743 0.96782,-1.2433 1.45172,-1.86494 3.10182,-4.95694 5.68859,-10.14598 8.24373,-15.40843 6.08534,-12.53326 11.65627,-25.30742 16.72712,-38.28587 11.63111,-29.83216 23.19872,-59.74842 32.95192,-90.2602 2.58511,-8.08714 4.97729,-16.23536 7.34316,-24.38933 2.2497,-7.75356 4.33528,-15.55382 6.50291,-23.33073 4.29199,-18.05433 8.64595,-36.088969 12.70621,-54.197076 0.40757,-1.8176 4.23056,-18.787771 4.85831,-22.330071 0.19704,-1.111787 0.19442,-2.249837 0.29162,-3.374755 0,0 -9.94788,5.068699 -9.94788,5.068699 z"
       id="path118"
       style="fill:#000000;fill-opacity:1;fill-rule:nonzero;stroke:none;stroke-width:0.264583" />
    <path
       d="m 642.98557,48.273652 c 6.13579,14.379765 13.02694,28.421052 19.30606,42.737124 2.06603,4.710493 4.03511,9.462934 6.05266,14.194394 9.09212,20.97961 17.77103,42.1414 26.16999,63.40781 2.04772,5.18491 4.13893,10.35349 6.0947,15.57377 1.89228,5.05073 3.6321,10.15727 5.44812,15.2359 7.19021,21.56446 12.2392,43.75209 18.74554,65.51845 1.05262,3.52144 2.20269,7.01305 3.30404,10.51957 4.79801,14.7153 11.28795,28.82003 17.98664,42.75172 0.74999,1.56739 1.49939,3.13507 2.24999,4.70217 0.59222,1.23645 2.25557,4.86492 3.17169,6.27957 0.22897,0.35356 0.51848,1.16943 0.8613,0.92467 10.94584,-7.81495 10.33936,-4.83841 7.39701,-12.89053 -1.07143,-2.32815 -2.14289,-4.65627 -3.21432,-6.98442 0,0 -8.96519,5.03838 -8.96519,5.03838 v 0 c 0.95205,2.35728 1.90407,4.71456 2.8561,7.07184 2.22406,7.80227 0.007,6.1455 11.40139,1.81665 0.30277,-0.11501 -0.64989,-0.20859 -0.85717,-0.45743 -0.59594,-0.71554 -1.03317,-1.55155 -1.49129,-2.36226 -1.00031,-1.77022 -3.47105,-6.77029 -4.25747,-8.34046 -6.88374,-13.75719 -13.51735,-27.7182 -18.52898,-42.27936 -1.14086,-3.47424 -2.33836,-6.93038 -3.42257,-10.42272 -6.72894,-21.67483 -11.84891,-43.83376 -19.26931,-65.29886 -1.84177,-5.07365 -3.62117,-10.17036 -5.5253,-15.22095 -10.03816,-26.62588 -21.4835,-52.70208 -32.12171,-79.08748 -1.97027,-4.764211 -3.9102,-9.54108 -5.91079,-14.292629 -6.08518,-14.452637 -12.69399,-28.718684 -17.815,-43.555599 0,0 -9.66613,5.42068 -9.66613,5.42068 z"
       id="path120"
       style="fill:#000000;fill-opacity:1;fill-rule:nonzero;stroke:none;stroke-width:0.264583" />
    <path
       d="m 710.2567,194.015 c -11.24032,0.18182 -22.48109,-0.44323 -33.71546,-0.7672 -17.14931,-0.50987 -34.30294,-0.92701 -51.459,-0.59347 -4.91871,0.15881 -9.89139,0.0777 -14.7098,1.19777 -2.17048,0.64445 -4.31739,1.35538 -6.51996,1.88445 0,0 -8.90292,6.77315 -8.90292,6.77315 v 0 c 2.24126,-0.46754 4.42347,-1.14282 6.5872,-1.88934 4.87574,-1.39665 9.9776,-1.4368 15.01,-1.72416 17.2834,-0.72913 34.58485,-0.50918 51.86691,0.21123 10.93044,0.48848 21.85291,1.24067 32.79036,1.48471 0,0 9.05267,-6.57714 9.05267,-6.57714 z"
       id="path122"
       style="fill:#000000;fill-opacity:1;fill-rule:nonzero;stroke:none;stroke-width:0.264583" />
  </g>
</svg>
